<svg width="20" height="20" xmlns="http://www.w3.org/2000/svg" class="icon">

 <g>
  <title>background</title>
  <rect fill="none" id="canvas_background" height="22" width="22" y="-1" x="-1"/>
 </g>
 <g>
  <title>Layer 1</title>
  <g stroke="null" id="svg_1" fill="currentColor">
   <g id="svg_4">
    <path stroke="null" id="svg_2" d="m14.45719,10.945449l0,5.938222a0.600583,0.600029 0 0 1 -0.598282,0.59773l-10.762179,0a0.600583,0.600029 0 0 1 -0.598282,-0.59773l0,-10.759148a0.600583,0.600029 0 0 1 0.598282,-0.59773l7.246119,0l0,-1.503522l-8.599158,0a0.750154,0.749462 0 0 0 -0.747853,0.747163l0,13.448935a0.750154,0.749462 0 0 0 0.747853,0.747163l13.461352,0a0.750154,0.749462 0 0 0 0.747853,-0.747163l0,-7.27392l-1.495706,0z"/>
    <path stroke="null" id="svg_3" d="m10.172568,11.115573l7.045925,-7.039425l0,6.154325a0.899725,0.898895 0 0 0 0.897423,0.894297a0.888219,0.8874 0 0 0 0.888219,-0.894297l0,-8.303855a0.888219,0.8874 0 0 0 -0.888219,-0.891998l-8.316124,0a0.89052,0.889699 0 1 0 0,1.777099l6.157706,0l-7.048226,7.044023a0.892821,0.891998 0 1 0 1.263296,1.259832z"/>
   </g>
  </g>
 </g>
</svg>